{"title":"Silent Retreat 2016 Movies HDRip XviD AAC New with Sample ☻rDX☻","uid":13704663,"size":738936630,"categoryP":"video","categoryS":"movies","magnet":"?xt=urn:btih:6466cff8cdb68d325ff274ee228112ca79d11418&amp;dn=Silent+Retreat+2016+Movies+HDRip+XviD+AAC+New+with+Sample+%E2%98%BBrDX%E2%98%BB&amp;tr=udp%3A%2F%2Ftracker.leechers-paradise.org%3A6969&amp;tr=udp%3A%2F%2Fzer0day.ch%3A1337&amp;tr=udp%3A%2F%2Fopen.demonii.com%3A1337&amp;tr=udp%3A%2F%2Ftracker.coppersurfer.tk%3A6969&amp;tr=udp%3A%2F%2Fexodus.desync.com%3A6969","seeders":1,"leechers":0,"uploader":"basicssom","files":2,"time":1456806916,"description":"----------------------------------------------------------------\r\nSilent Retreat 2016 English Movies HDRip XviD AAC New Source with Sample ~ ☻rDX☻\r\n\r\nSCREEN SHOTS &amp; POSTER:\r\n  \nhttp://mobileshosting.com/2016/3/income/index.htm  \nhttp://mobileshosting.com/2016/3/income/1.html  \nhttp://mobileshosting.com/2016/3/income/2.html  \nhttp://mobileshosting.com/2016/3/income/3.html  \nhttp://mobileshosting.com/2016/3/income/4.html  \nhttp://mobileshosting.com/2016/3/income/5.html  \nhttp://mobileshosting.com/2016/3/income/6.html  \nhttp://mobileshosting.com/2016/3/income/7.html  \nhttp://mobileshosting.com/2016/3/income/8.html  \nhttp://mobileshosting.com/2016/3/income/9.html  \nhttp://mobileshosting.com/2016/3/income/10.html\r\n\r\nFormat                                   : Matroska\r\nFormat version                           : Version 4 / Version 2\r\nFile size                                : 694 MiB\r\nDuration                                 : 1h 31mn\r\nOverall bit rate                         : 1 061 Kbps\r\nMovie name                               : Silent Retreat 2016 English Movies HDRip XviD AAC New Source ☻rDX☻\r\n\r\nVideo\r\nID                                       : 1\r\nFormat                                   : MPEG-4 Visual\r\nFormat profile                           : Advanced   \r\nFormat settings, BVOP                    : Yes\r\nFormat settings, QPel                    : No\r\nFormat settings, GMC                     : No warppoints\r\nFormat settings, Matrix                  : Default (H.263)\r\nCodec ID                                 : V_MS/VFW/FOURCC / XVID\r\nCodec ID/Hint                            : XviD\r\nDuration                                 : 1h 31mn\r\nBit rate                                 : 911 Kbps\r\nWidth                                    : 640 pixels\r\nHeight                                   : 344 pixels\r\nDisplay aspect ratio                     : 1.85:1\r\nFrame rate mode                          : Constant\r\nFrame rate                               : 23.976 fps\r\nColor space                              : YUV\r\nChroma subsampling                       : 4:2:0\r\nBit depth                                : 8 bits\r\nScan type                                : Progressive\r\nCompression mode                         : Lossy\r\nBits/(Pixel*Frame)                       : 0.173\r\nStream size                              : 596 MiB (86%)\r\nTitle                                    : ☻rDX☻\r\nWriting library                          : XviD 67\r\nDefault                                  : Yes\r\nForced                                   : No\r\n\r\nAudio\r\nID                                       : 2\r\nFormat                                   : MPEG Audio\r\nFormat version                           : Version 1\r\nFormat profile                           : Layer 3\r\nMode                                     : Joint stereo\r\nMode extension                           : MS Stereo\r\nCodec ID                                 : A_MPEG/L3\r\nCodec ID/Hint                            : MP3\r\nDuration                                 : 1h 31mn\r\nBit rate mode                            : Constant\r\nBit rate                                 : 128 Kbps\r\nChannel(s)                               : 2 channels\r\nSampling rate                            : 48.0 KHz\r\nCompression mode                         : Lossy\r\nStream size                              : 83.7 MiB (12%)\r\nTitle                                    : ☻rDX☻\r\nWriting library                          : LAME3.99r\r\nEncoding settings                        : -m j -V 4 -q 3 -lowpass 17 -b 128\r\nDefault                                  : Yes\r\nForced                                   : No\r\n\r\nIMDB                                      \nhttp://www.imdb.com/title/tt3563892/","torrent":{"xt":"urn:btih:6466cff8cdb68d325ff274ee228112ca79d11418","amp;dn":"Silent+Retreat+2016+Movies+HDRip+XviD+AAC+New+with+Sample+%E2%98%BBrDX%E2%98%BB","amp;tr":["udp%3A%2F%2Ftracker.leechers-paradise.org%3A6969","udp%3A%2F%2Fzer0day.ch%3A1337","udp%3A%2F%2Fopen.demonii.com%3A1337","udp%3A%2F%2Ftracker.coppersurfer.tk%3A6969","udp%3A%2F%2Fexodus.desync.com%3A6969"],"infoHash":"6466cff8cdb68d325ff274ee228112ca79d11418","infoHashBuffer":{"type":"Buffer","data":[100,102,207,248,205,182,141,50,95,242,116,238,34,129,18,202,121,209,20,24]},"announce":[],"urlList":[]}}